<svg xmlns="http://www.w3.org/2000/svg" width="16" height="16" viewBox="0 0 24 24">
  <path fill="#6657E8" d="M13.15 1.5h1.7c.4 0 .79.16 1.08.45l6.12 6.12c.29.29.45.68.45 1.08v1.7c0 .28-.22.5-.5.5h-5.2c-.17 0-.33-.07-.45-.19l-3.3-3.3a.65.65 0 0 1-.4-.45V2c0-.28.22-.5.5-.5Z"/>
  <path fill="#6657E8" transform="rotate(90 12 12)" d="M13.15 1.5h1.7c.4 0 .79.16 1.08.45l6.12 6.12c.29.29.45.68.45 1.08v1.7c0 .28-.22.5-.5.5h-5.2c-.17 0-.33-.07-.45-.19l-3.3-3.3a.65.65 0 0 1-.4-.45V2c0-.28.22-.5.5-.5Z"/>
  <path fill="#6657E8" transform="rotate(180 12 12)" d="M13.15 1.5h1.7c.4 0 .79.16 1.08.45l6.12 6.12c.29.29.45.68.45 1.08v1.7c0 .28-.22.5-.5.5h-5.2c-.17 0-.33-.07-.45-.19l-3.3-3.3a.65.65 0 0 1-.4-.45V2c0-.28.22-.5.5-.5Z"/>
  <path fill="#6657E8" transform="rotate(270 12 12)" d="M13.15 1.5h1.7c.4 0 .79.16 1.08.45l6.12 6.12c.29.29.45.68.45 1.08v1.7c0 .28-.22.5-.5.5h-5.2c-.17 0-.33-.07-.45-.19l-3.3-3.3a.65.65 0 0 1-.4-.45V2c0-.28.22-.5.5-.5Z"/>
</svg>
